<?xml version="1.0" ?><svg enable-background="new 0 0 500 500" id="Layer_1" version="1.1" viewBox="0 0 500 500" xml:space="preserve" xmlns="http://www.w3.org/2000/svg" xmlns:xlink="http://www.w3.org/1999/xlink"><g><g><path d="M250,291.6c-52.8,0-95.8-43-95.8-95.8s43-95.8,95.8-95.8s95.8,43,95.8,95.8S302.8,291.6,250,291.6z M250,127.3    c-37.7,0-68.4,30.7-68.4,68.4s30.7,68.4,68.4,68.4s68.4-30.7,68.4-68.4S287.7,127.3,250,127.3z"/></g><g><path d="M386.9,401.1h-27.4c0-60.4-49.1-109.5-109.5-109.5s-109.5,49.1-109.5,109.5h-27.4c0-75.5,61.4-136.9,136.9-136.9    S386.9,325.6,386.9,401.1z"/></g></g></svg>