<svg width="41" height="41" viewBox="0 0 41 41" fill="none" xmlns="http://www.w3.org/2000/svg">
<path d="M39.9971 36.8975L30.8086 27.709C33.0208 24.764 34.215 21.1794 34.2109 17.4961C34.2109 8.08789 26.5566 0.433594 17.1484 0.433594C7.74024 0.433594 0.0859375 8.08789 0.0859375 17.4961C0.0859375 26.9043 7.74024 34.5586 17.1484 34.5586C20.8317 34.5626 24.4164 33.3684 27.3613 31.1563L36.5498 40.3447C37.0149 40.7605 37.6216 40.9824 38.2452 40.965C38.8688 40.9475 39.4621 40.692 39.9032 40.2509C40.3444 39.8097 40.5999 39.2165 40.6173 38.5928C40.6348 37.9692 40.4129 37.3626 39.9971 36.8975ZM4.96094 17.4961C4.96094 15.0856 5.67572 12.7293 7.0149 10.7251C8.35408 8.72086 10.2575 7.15876 12.4845 6.23631C14.7115 5.31387 17.162 5.07252 19.5261 5.54277C21.8902 6.01303 24.0619 7.17378 25.7663 8.87823C27.4708 10.5827 28.6315 12.7543 29.1018 15.1184C29.572 17.4826 29.3307 19.9331 28.4082 22.16C27.4858 24.387 25.9237 26.2905 23.9195 27.6296C21.9152 28.9688 19.5589 29.6836 17.1484 29.6836C13.9173 29.6797 10.8196 28.3944 8.53486 26.1097C6.2501 23.8249 4.96481 20.7272 4.96094 17.4961Z" fill="white"/>
</svg>
