<svg width="84" height="84" viewBox="0 0 84 84" fill="none" xmlns="http://www.w3.org/2000/svg">
<path fill-rule="evenodd" clip-rule="evenodd" d="M48.8378 31.1591L40.4535 0.0195312L32.0692 31.1591L0.929688 39.5433L32.0692 47.9276L40.4535 79.0671L41.8976 73.7037L42.3098 75.2346L43.582 74.8921L42.5798 71.17L48.8378 47.9276L72.0802 41.6696L75.8023 42.6718L76.1448 41.3997L74.6138 40.9874L79.9773 39.5433L48.8378 31.1591ZM74.6138 40.9874L70.9549 40.0023L70.6124 41.2744L72.0802 41.6696L74.6138 40.9874ZM42.5798 71.17L42.1846 69.7022L40.9124 70.0447L41.8976 73.7037L42.5798 71.17ZM45.1046 6.56687L45.069 6.57645L44.9793 6.9094L44.4059 6.75499L43.8324 6.9094L43.7428 6.57645L43.7072 6.56687L44.4059 3.97191L45.1046 6.56687ZM46.5019 11.7568L47.8993 16.9467L46.6272 17.2892L45.2298 12.0993L46.5019 11.7568ZM49.2967 22.1366L50.6941 27.3266L49.4219 27.6691L48.0245 22.4792L49.2967 22.1366ZM52.0915 32.5165L52.7901 35.1115L55.3851 35.8101L55.0426 37.0823L51.7152 36.1864L50.8193 32.859L52.0915 32.5165ZM60.575 37.2075L65.7649 38.6049L65.4224 39.8771L60.2325 38.4797L60.575 37.2075ZM81.3251 42.8326L81.3347 42.797L83.9297 43.4957L81.3347 44.1944L81.3251 44.1588L80.9922 44.0692L81.1466 43.4957L80.9922 42.9223L81.3251 42.8326ZM76.1448 45.5918L70.9549 46.9892L70.6124 45.717L75.8023 44.3196L76.1448 45.5918ZM65.765 48.3865L60.575 49.7839L60.2325 48.5118L65.4224 47.1144L65.765 48.3865ZM55.3851 51.1813L52.7901 51.88L52.0915 54.4749L50.8193 54.1324L51.7152 50.805L55.0426 49.9091L55.3851 51.1813ZM50.6941 59.6649L49.2967 64.8548L48.0245 64.5123L49.4219 59.3223L50.6941 59.6649ZM47.8993 70.0447L46.5019 75.2346L45.2298 74.8921L46.6272 69.7022L47.8993 70.0447ZM45.069 80.415L45.1046 80.4246L44.4059 83.0195L43.7072 80.4246L43.7428 80.415L43.8324 80.082L44.4059 80.2365L44.9793 80.082L45.069 80.415ZM39.5151 64.8548L38.1177 59.6649L39.3898 59.3223L40.7872 64.5123L39.5151 64.8548ZM36.7203 54.4749L36.0216 51.88L33.4267 51.1813L33.7692 49.9091L37.0966 50.805L37.9925 54.1324L36.7203 54.4749ZM28.2367 49.7839L23.0468 48.3865L23.3893 47.1144L28.5793 48.5118L28.2367 49.7839ZM17.8569 46.9892L12.667 45.5918L13.0095 44.3196L18.1994 45.717L17.8569 46.9892ZM7.48661 44.1588L7.47703 44.1944L4.88207 43.4957L7.47703 42.797L7.48661 42.8326L7.81956 42.9223L7.66515 43.4957L7.81956 44.0692L7.48661 44.1588ZM12.667 41.3997L17.8569 40.0023L18.1994 41.2744L13.0095 42.6718L12.667 41.3997ZM23.0468 38.6049L28.2367 37.2075L28.5793 38.4797L23.3893 39.8771L23.0468 38.6049ZM33.4267 35.8101L36.0216 35.1115L36.7203 32.5165L37.9925 32.859L37.0966 36.1864L33.7692 37.0823L33.4267 35.8101ZM38.1177 27.3266L39.5151 22.1366L40.7872 22.4792L39.3898 27.6691L38.1177 27.3266ZM40.9124 16.9467L42.3098 11.7568L43.582 12.0993L42.1846 17.2892L40.9124 16.9467Z" fill="#EB853C"/>
</svg>
