<svg width="798" height="13" viewBox="0 0 798 13" fill="none" xmlns="http://www.w3.org/2000/svg">
<path d="M115.647 -2.51917L117.644 -2.67734L113.758 -2.90412L115.621 -3.07012C117.489 -3.0686 119.909 -2.81987 121.225 -2.95203C121.386 -3.07999 119.353 -3.12106 118.834 -3.22301C118.374 -3.32751 118 -3.43133 117.714 -3.53323C118.731 -3.53213 119.849 -3.50748 121.002 -3.46074C122.553 -3.38439 124.074 -3.34727 125.398 -3.35349C128.104 -3.33287 130.719 -3.35344 133.662 -3.34891L132.683 -3.65687L136.475 -3.58483C136.877 -3.56137 137.356 -3.59909 137.751 -3.57007C141.038 -3.3245 142.429 -3.45832 144.007 -3.56928C144.33 -3.59798 144.72 -3.61942 145.166 -3.63302C149.55 -3.5742 153.504 -3.22998 157.452 -3.05327C158.196 -3.00815 158.908 -2.95024 159.54 -2.88364C160.914 -2.75416 162.441 -2.64844 163.984 -2.57617C165.526 -2.50389 167.033 -2.46737 168.368 -2.46992C171.321 -2.47278 174.656 -2.38713 178.052 -2.22128C179.061 -2.16665 180.072 -2.13061 181.019 -2.11546C181.965 -2.10031 182.828 -2.10637 183.55 -2.13327L185.846 -1.95748C186.841 -2.02881 188.103 -2.06795 189.555 -2.07251C191.007 -2.07708 192.619 -2.04698 194.293 -1.98404C196.077 -1.91576 197.889 -1.86973 199.739 -1.79754C203.562 -1.65953 207.283 -1.57512 210.786 -1.54695C216.003 -1.46346 221.099 -1.3989 226.362 -1.29481C229.654 -1.24457 232.862 -1.21693 235.966 -1.21205C239.684 -1.1924 243.706 -1.09726 247.837 -0.93122C247.642 -0.775441 245.83 -0.821462 244.614 -0.826734C240.691 -0.852626 236.677 -0.919721 232.641 -0.970123C230.823 -0.989797 229.055 -0.997248 227.348 -0.992423C224.493 -0.998883 221.483 -1.04039 218.371 -1.11624C213.453 -1.1997 208.693 -1.23982 204.139 -1.23618C203.782 -1.23001 203.455 -1.21908 203.163 -1.20356C203.102 -1.19013 203.09 -1.17318 203.128 -1.15436C203.166 -1.13553 203.253 -1.11545 203.38 -1.09604C203.507 -1.07663 203.671 -1.05855 203.854 -1.04352C204.038 -1.02848 204.237 -1.017 204.43 -1.01017C206.239 -0.904603 208.182 -0.791216 209.888 -0.775264C209.954 -0.774072 210.024 -0.77135 210.093 -0.767293C210.163 -0.763235 210.23 -0.757945 210.29 -0.751805C214.108 -0.528932 217.248 -0.566647 220.223 -0.530387C225.161 -0.432387 229.922 -0.386609 234.433 -0.39375C235.115 -0.393265 235.851 -0.380524 236.615 -0.355992C241.34 -0.256542 245.757 -0.245418 249.661 -0.323125C251.268 -0.342811 252.762 -0.387006 254.489 -0.387745C255.552 -0.390787 256.478 -0.418989 257.211 -0.470664C257.943 -0.52234 258.467 -0.59642 258.75 -0.688447C259.479 -0.639996 260.219 -0.596816 260.961 -0.55942C261.404 -0.538041 261.83 -0.532361 262.151 -0.543549C262.472 -0.554739 262.665 -0.581958 262.691 -0.619702C262.824 -0.725409 261.812 -0.778496 260.934 -0.823763C261.464 -0.846433 262.06 -0.859769 262.71 -0.863452C266.368 -0.887605 270.292 -0.859097 274.397 -0.778553C277.583 -0.682143 280.127 -0.760614 283.48 -0.624658C283.882 -0.601198 284.213 -0.635631 284.583 -0.643899C285.547 -0.687437 286.749 -0.697224 288.084 -0.6724C289.418 -0.647579 290.846 -0.588897 292.242 -0.501445C293.981 -0.740368 297.736 -0.467419 300.51 -0.442889C301.364 -0.321386 300.384 -0.342746 300.342 -0.309365C300.3 -0.275983 300.342 -0.309372 300.007 -0.328922C297.238 -0.156853 293.444 -0.119333 289.157 -0.221635C288.365 -0.22121 287.609 -0.213371 286.899 -0.198193C285.822 -0.176712 284.608 -0.178858 283.311 -0.204536C281.893 -0.223394 280.591 -0.214437 279.466 -0.178098C278.82 -0.178689 278.273 -0.160483 277.876 -0.125159C277.48 -0.089833 277.247 -0.0385298 277.199 0.023979C277.631 0.072169 278.109 0.116262 278.617 0.154511C281.265 0.305529 283.905 0.368039 286.019 0.329743C289.697 0.263757 294.075 0.328148 297.987 0.305622C300.631 0.296497 303.445 0.32249 306.375 0.383118C306.375 0.383118 306.298 0.444316 306.291 0.44988C306.637 0.476379 307.001 0.497638 307.363 0.512442C307.363 0.512442 307.363 0.512442 307.398 0.484625C307.237 0.457912 307.019 0.432781 306.77 0.412143L305.899 0.361311C306.491 0.348082 307.044 0.308696 307.661 0.33276C308.96 0.377468 310.203 0.39634 311.313 0.38826C312.423 0.38018 313.378 0.345308 314.12 0.285737C315.435 0.209391 317.071 0.17467 318.922 0.18382C320.341 0.175485 321.708 0.157571 323.017 0.130168C323.017 0.130168 323.101 0.0634108 323.721 0.0279286C323.134 -0.0158352 322.521 -0.0515697 321.912 -0.077639C319.261 -0.142767 316.603 -0.202333 313.999 -0.246862C313.039 -0.251672 312.137 -0.244212 311.31 -0.224625C309.018 -0.201707 306.443 -0.234235 303.736 -0.320316C303.736 -0.320316 303.2 -0.351595 302.932 -0.367235C303.692 -0.513989 306.311 -0.367071 307.371 -0.466456C308.016 -0.464647 309.151 -0.452148 309.112 -0.478314C309.024 -0.513229 309.013 -0.545664 309.081 -0.573292C309.149 -0.600921 309.294 -0.623062 309.506 -0.638123C309.717 -0.653183 309.99 -0.660797 310.304 -0.660411C310.618 -0.660023 310.967 -0.651643 311.324 -0.635882C314.306 -0.550618 317.115 -0.526907 319.578 -0.566202C320.512 -0.565444 321.559 -0.540173 322.486 -0.53385C323.053 -0.526235 323.571 -0.53047 324.011 -0.546323C326.251 -0.663064 329.264 -0.67159 332.599 -0.570619C334.211 -0.534316 335.717 -0.529461 337.04 -0.556303C337.981 -0.561107 338.38 -0.478107 339.05 -0.439007L341.894 -0.356582L338.241 -0.253303C339.022 -0.0166185 339.643 0.0614255 340.919 0.0761706C342.78 0.0984366 344.593 0.108497 346.346 0.106287C347.643 0.104341 348.714 0.0533691 350.47 0.143903C350.78 0.15867 351.079 0.16345 351.316 0.15744C353.372 0.0770659 355.848 0.0586197 358.575 0.103361C359.987 -0.0471459 362.392 0.0991871 364.616 0.217091C365.334 0.10372 364.033 0.0516762 363.257 -0.0174983C365.118 -0.0104176 366.993 -0.014461 368.914 0.00209532C369.492 -0.00393357 370.152 0.00637737 370.843 0.0322096C371.534 0.0580429 372.237 0.0986928 372.897 0.150983C373.219 0.184768 373.607 0.210197 373.98 0.221987C374.354 0.233777 374.684 0.231027 374.903 0.214305C375.9 0.164992 377.497 0.210411 378.321 0.127114C378.613 0.107957 379.032 0.105283 379.502 0.119557C379.971 0.133834 380.461 0.164136 380.884 0.205033C380.421 0.217792 380.01 0.237886 379.658 0.264869C378.397 0.352524 378.86 0.498988 380.462 0.711919C382.922 0.700209 385.434 0.703534 387.714 0.663403C388.985 0.627378 390.542 0.63864 392.21 0.695924C393.879 0.753207 395.592 0.854241 397.158 0.987663C397.725 1.03897 398.371 1.0745 398.968 1.08721C399.565 1.09992 400.069 1.08887 400.38 1.05625C400.573 1.01853 400.633 0.970785 400.555 0.917162L398.947 0.823324C398.947 0.823324 399.01 0.773252 399.024 0.762125L401.335 0.753712C402.558 0.75342 403.834 0.768171 404.99 0.763969C406.688 0.736025 408.626 0.751599 410.686 0.809729C412.585 0.869334 414.452 0.914388 416.269 0.944495C418.028 0.975483 419.303 0.876695 420.976 0.860919C422.242 0.849027 423.634 0.861735 425.1 0.898547C427.632 0.963835 429.956 0.963957 431.859 0.898898C434.079 1.24942 435.158 1.30641 437.219 1.2117L438.188 1.18464L438.453 1.25982L439.193 1.24329C440.577 1.22856 441.962 1.21384 443.407 1.20859C445.416 1.24112 447.586 1.32864 449.704 1.4626C450.106 1.48606 450.653 1.56577 451.006 1.62817C451.359 1.69058 452.128 1.87884 452.693 2.00139C452.078 2.09086 451.395 2.17641 450.906 2.27926C450.857 2.29683 450.862 2.31778 450.92 2.34043C450.978 2.36308 451.088 2.3868 451.241 2.40967C451.394 2.43254 451.586 2.45394 451.801 2.47213C452.016 2.49033 452.249 2.50482 452.48 2.51445C452.93 2.53519 453.374 2.54902 453.795 2.55536C455.865 2.5663 457.847 2.55817 459.722 2.53104C460.407 2.49278 461.344 2.48914 462.386 2.52072C463.427 2.5523 464.513 2.61728 465.471 2.70536C467.925 2.65248 470.776 2.6681 473.828 2.75114C477.055 2.70063 480.954 2.80276 483.969 2.69211C483.899 2.74775 484.21 2.84354 484.644 2.89872C485.331 2.98255 486.108 3.06024 486.944 3.1285L493.321 3.26177C493.559 3.3303 493.857 3.39967 494.211 3.46899C494.453 3.52374 494.875 3.57731 495.387 3.61835C495.899 3.6594 496.462 3.68469 496.954 3.68885C498.223 3.70916 499.287 3.66375 500.8 3.77593C498.47 3.88198 495.328 3.86789 491.933 3.73618C488.743 3.636 485.675 3.58594 482.843 3.58784C481.909 3.58709 480.679 3.59293 480.387 3.65353C479.74 3.8248 478.048 3.79772 476.075 3.76613C474.524 3.73155 473.108 3.73543 471.942 3.77745C470.777 3.81948 469.895 3.89845 469.37 4.00787C469.237 4.11357 469.555 4.2038 470.916 4.26531L476.575 4.51196C477.409 4.48025 478.2 4.44271 478.946 4.3995C480.201 4.34212 481.752 4.32636 483.476 4.35347C485.201 4.38058 487.053 4.44983 488.889 4.55581C489.827 4.61055 490.764 4.66529 491.444 4.63928C492.041 4.6094 492.591 4.57363 493.089 4.53223C493.19 4.50448 493.23 4.47254 493.208 4.43765C493.569 4.45387 493.93 4.47497 494.28 4.50021C497.074 4.79465 499.238 4.78955 501.203 4.71318C501.735 4.69048 502.14 4.65439 502.679 4.62613C503.218 4.59786 503.408 4.56118 503.898 4.57186C507.804 4.66842 508.928 4.34589 512.22 4.35884C512.381 4.34625 512.48 4.32741 512.509 4.30407C512.539 4.28074 512.497 4.25366 512.388 4.22532C512.156 4.19973 511.886 4.17773 511.605 4.16133C511.325 4.14493 511.041 4.13467 510.78 4.13148C509.265 4.09009 507.927 4.10278 506.995 4.16739C506.335 4.19379 505.636 4.21482 504.903 4.23037L501.607 3.7633C504.8 3.80612 507.82 3.80584 510.597 3.76247C511.203 3.73811 512.229 3.78007 513.082 3.78805L519.355 3.8317C520.645 3.83532 521.744 3.7621 523.543 3.93279C523.543 3.93279 524.73 3.96031 525.047 3.937C525.364 3.9137 526.769 3.76875 527.607 3.67433C528.58 3.70125 529.927 3.77389 530.533 3.74954C531.591 3.68972 532.507 3.61303 533.265 3.52085L537.055 3.65244C537.051 3.76934 536.912 3.87932 536.642 3.98069C536.347 4.07846 536.357 4.19582 536.672 4.32317C536.986 4.45053 537.597 4.58426 538.453 4.71345L542.195 5.39765C542.806 5.44347 543.457 5.47431 544.059 5.48599C544.662 5.49767 545.188 5.48962 545.565 5.46293C547.175 5.3837 548.978 5.32176 550.588 5.24253C552.665 5.36374 552.131 5.55952 553.641 5.73125L558.532 6.01668C559.278 6.28118 560.038 6.53456 557.769 6.62311C557.318 6.63859 557.622 6.73994 557.21 6.78159C558.974 6.98009 560.913 7.03951 562.701 7.16177C563.406 7.2497 563.995 7.34277 564.441 7.4365C564.93 7.57762 565.922 7.72178 567.202 7.83784C568.482 7.9539 569.948 8.03255 571.283 8.05681C573.523 8.13112 575.816 8.24272 578.059 8.38662C578.826 8.43666 579.614 8.47312 580.369 8.49353C581.125 8.51395 581.832 8.51786 582.441 8.50499C584.612 8.48234 586.45 8.40442 587.834 8.27632C589.203 8.16761 591.049 8.11522 593.204 8.12388C596.888 8.33894 597.631 8.66299 599.861 8.9484L596.01 8.9804C595.87 9.09167 596.125 9.23197 594.546 9.2294C592.967 9.22683 593.768 9.3333 594.28 9.44082C594.46 9.4949 594.813 9.55053 595.277 9.5983C595.741 9.64606 596.288 9.68302 596.827 9.70292L600.106 9.84054C601.268 9.89291 602.393 9.91527 603.358 9.90517C604.322 9.89507 605.088 9.8529 605.571 9.78329C606.126 9.71718 606.892 9.67247 607.822 9.65189C609.007 9.59796 609.981 9.51776 610.709 9.41432L615.338 9.56503C615.535 9.46108 616.171 9.3882 617.138 9.3587C618.106 9.3292 619.345 9.34488 620.647 9.40312L623.767 9.49562C627.236 9.59654 627.997 9.56332 629.012 9.27026L624.853 8.74679C625.457 8.60891 626.041 8.48772 626.625 8.36652C625.589 8.19407 624.206 8.03095 622.617 7.89374C621.135 7.74631 619.611 7.60352 618.05 7.46592C616.357 7.32531 614.569 7.20305 612.467 7.04454C612.1 6.99326 611.567 6.90244 610.886 6.81492C610.205 6.72987 609.494 6.6465 608.755 6.56514C608.895 6.45387 609.021 6.35373 608.752 6.22456C610.047 6.26577 611.384 6.33786 612.644 6.43431C613.903 6.53077 615.046 6.64856 615.968 6.77707C616.123 6.79986 616.313 6.82126 616.525 6.83984C616.737 6.85841 616.967 6.87373 617.199 6.88474C619.472 6.9637 620.559 7.12865 621.671 7.33091C622.42 7.4343 623.385 7.52611 624.433 7.59362C626.443 7.71092 628.411 7.8616 630.333 7.99169C630.921 8.03504 631.532 8.07071 632.141 8.09725C634.15 8.18164 636.172 8.29964 638.104 8.44526C638.735 8.48226 639.34 8.53124 639.869 8.58808C640.398 8.64493 640.835 8.70799 641.145 8.77202C640.666 8.84216 640.408 8.9307 640.386 9.0323C640.302 9.09906 641.713 9.23516 642.38 9.33381C643.047 9.43246 641.739 9.38598 641.295 9.3959C639.473 9.41498 639.135 9.45497 640.226 9.67392C640.591 9.74276 640.833 9.81165 640.937 9.87629C641.041 9.94093 641.006 9.99996 640.832 10.0497C640.573 10.2556 639.786 10.4246 639.245 10.6259C640.085 10.7585 641.488 10.9002 641.642 11.0644C641.715 11.1008 641.871 11.1394 642.096 11.1774C642.322 11.2153 642.613 11.2517 642.948 11.2839C643.829 11.3534 644.631 11.4365 645.291 11.5268C645.951 11.6171 646.45 11.7121 646.751 11.8045C646.85 11.8428 647.088 11.8833 647.418 11.9181C647.747 11.9528 648.145 11.9792 648.529 11.9919C648.989 12.0075 649.401 12.0055 649.679 11.9862C649.958 11.9668 650.082 11.9318 650.026 11.8882C650.037 11.8062 649.977 11.7208 649.844 11.6327C649.921 11.5715 649.998 11.5103 649.694 11.4089C651.067 11.4459 652.509 11.52 653.862 11.6233C655.216 11.7265 656.429 11.8548 657.371 11.9944C658.412 12.1387 659.372 12.2903 660.526 12.4592C660.288 12.6483 660.288 12.6483 662.744 12.9828L675.771 13.1459L678.441 13.3674C680.93 13.5605 681.522 13.5472 683.086 13.4474L684.139 13.3536C686.35 13.4826 688.896 13.6312 690.278 13.3894C690.727 13.547 691.02 13.5999 690.918 13.6239C690.258 13.8564 689.111 14.0537 687.523 14.208C687.118 14.2441 686.833 14.2991 686.361 14.3313C684.839 14.5129 684.487 14.7935 685.374 15.1158C685.815 15.2584 686.455 15.4044 687.274 15.5491C686.076 15.75 684.488 15.9164 682.553 16.044C680.911 16.1426 679.559 16.2747 678.536 16.4365C677.617 16.5997 676.241 16.7223 674.486 16.7974C673.596 16.8293 672.947 16.8923 672.603 16.9801C672.5 17.2177 672.736 17.4721 673.304 17.7376C673.411 17.8184 673.715 17.9057 674.192 17.9926C674.669 18.0795 675.306 18.1637 676.054 18.2385C676.054 18.2385 676.414 18.2954 676.587 18.3294C676.731 18.6171 676.191 18.8707 675.004 19.0731C674.81 19.1305 674.412 19.172 673.853 19.193C673.294 19.2141 672.596 19.2139 671.834 19.1926C670.223 19.1583 668.718 19.1541 667.16 19.1348C665.481 19.1076 664.003 19.129 662.88 19.197C661.756 19.2649 661.03 19.3767 660.778 19.5208C660.761 19.5615 660.712 19.6006 660.631 19.6376C660.584 19.6567 660.558 19.6772 660.554 19.6988L664.132 20.1704L660.084 20.3581C659.846 20.5473 661.789 20.6607 662.763 20.8011L662.161 20.8795C661.386 20.9238 660.342 20.839 659.397 20.7898L658.46 20.7351L658.348 20.8241C657.764 20.9453 655.634 20.8091 654.803 20.8979C653.972 20.9868 654.565 21.0871 655.81 21.1836C656.676 21.2554 657.605 21.3126 658.528 21.351C659.451 21.3894 660.345 21.4079 661.141 21.4052C661.616 21.3957 662.01 21.374 662.299 21.3414C663.98 21.2028 665.836 21.0836 667.854 20.9848C669.401 20.896 671.338 20.8583 673.53 20.8742C674.173 20.8675 674.949 20.8885 675.721 20.9335C676.493 20.9786 677.211 21.0448 677.751 21.1205L678.885 21.133C678.885 21.133 679.506 21.211 679.418 21.2238C678.986 21.455 679.488 21.7377 680.85 22.0299L679.666 22.0564C677.974 22.0293 679.047 22.2054 678.794 22.2922C677.592 22.2758 676.03 22.2025 675.46 22.3126L674.607 22.3046L674.942 22.3242L675.347 22.2881L676.938 22.4526C676.184 22.4803 675.638 22.5141 674.973 22.529C674.605 22.5419 674.312 22.5648 674.112 22.5962C673.912 22.6276 673.808 22.6669 673.808 22.7118C673.81 22.7808 673.611 22.8389 673.232 22.8805C672.852 22.9221 672.304 22.9459 671.639 22.9495C670.846 22.951 670.392 23.026 669.927 23.0527L671.947 23.505C671.947 23.505 670.942 23.4463 671.489 23.526L671.559 23.4704L672.783 23.5836C673.665 23.6829 674.282 23.7069 674.803 23.6358C675.324 23.5647 675.205 23.6593 675.455 23.6321C675.364 23.7044 674.797 23.7549 674.311 23.7982C673.749 23.8322 673.115 23.8573 672.419 23.8729C673.673 24.191 673.733 24.2004 671.902 24.2846C670.07 24.3688 670.702 24.4953 669.169 24.5133C667.636 24.5314 669.379 24.7466 670.405 24.7885C671.165 24.8161 671.941 24.8591 672.678 24.9145C673.415 24.9699 674.097 25.0364 674.676 25.1094L674.368 25.3542C673.917 25.334 673.465 25.3076 673.028 25.276C671.543 25.1416 670.192 25.015 668.871 25.0931L669.5 25.2792L664.89 25.1713C665.009 25.3107 665.712 25.4695 666.85 25.6142C666.678 25.6936 666.573 25.7773 666.535 25.8645C666.458 25.9257 666.003 25.8872 665.707 25.8938C664.651 25.9041 663.784 25.9455 663.183 26.0146C662.582 26.0837 662.265 26.1782 662.26 26.2899C662.141 26.3844 663.764 26.5807 664.779 26.5742C667.313 26.5931 670.053 26.6659 672.852 26.7886C674.557 26.8045 674.798 26.5558 677.605 26.7256C677.661 26.8404 677.301 26.9334 676.581 26.9905C675.86 27.0476 674.818 27.0656 673.611 27.0419C674.297 27.297 678.097 27.3635 678.265 27.6301C677.319 27.6112 676.307 27.5669 675.33 27.5015C674.353 27.4361 673.444 27.3519 672.694 27.2571C672.532 27.2338 672.328 27.2122 672.102 27.1945C671.876 27.1768 671.635 27.1635 671.401 27.1558C671.167 27.1481 670.947 27.1462 670.763 27.1504C670.579 27.1546 670.435 27.1647 670.346 27.1798C670.872 27.2762 671.451 27.3876 672.111 27.4918C672.771 27.596 672.93 27.6411 673.406 27.663C676.956 27.8702 678.644 28.2434 681.716 28.4884C682.52 28.5353 682.62 28.6845 681.922 28.6676C681.258 28.6508 680.657 28.653 680.186 28.674C679.715 28.695 679.393 28.734 679.256 28.7867C678.74 28.8481 678.099 28.897 677.347 28.9321C680.497 29.3151 684.253 29.6535 688.263 29.9156C689.022 29.9674 689.814 29.9989 690.523 30.0057C692.761 30.006 695.136 30.0364 697.6 30.0962C698.474 30.1126 699.281 30.111 699.979 30.0917C702.265 30.046 704.081 30.1461 705.74 30.428L708.486 30.8749C708.395 30.9472 707.934 31.0278 707.579 31.1385L709.724 31.3772L726.092 30.8275L729.378 31.3597L734.09 31.3301C734.451 31.3455 734.814 31.3667 735.161 31.3927C736.114 31.5498 736.859 31.7008 737.893 31.8507C738.927 32.0006 740.774 32.0188 742.062 32.1955C743.35 32.3722 744.64 32.3759 746.234 32.4808C746.384 32.6176 746.229 32.7407 745.779 32.8424C745.632 32.9593 744.822 33.0315 744.682 33.1427C744.698 33.2552 744.397 33.3507 743.806 33.4205C743.216 33.4903 742.356 33.5323 741.303 33.5427C738.354 33.7821 734.798 33.9526 730.742 34.049C730.386 34.056 730.09 34.0722 729.874 34.0966C729.658 34.121 729.526 34.153 729.485 34.1907C729.491 34.2998 729.22 34.3942 728.694 34.4667C728.167 34.5393 727.397 34.5883 726.441 34.6102C726.186 34.6146 725.994 34.6283 725.888 34.6496C725.525 34.6633 725.261 34.6896 725.121 34.7259C724.98 34.7623 724.969 34.8074 725.087 34.8569C725.206 34.9065 725.45 34.9588 725.797 35.0088C726.143 35.0588 726.58 35.1048 727.066 35.1423C727.77 35.2029 728.489 35.2608 729.221 35.3159C729.179 35.3493 728.453 35.3547 728.559 35.3847C728.845 35.4807 728.912 35.5707 728.753 35.6474C728.594 35.7242 728.214 35.7856 727.643 35.827L731.555 36.6047C733.929 36.7124 736.258 36.8951 738.1 37.1181C738.103 37.1546 737.997 37.1852 737.793 37.2069C737.589 37.2285 737.294 37.2404 736.939 37.2414C735.984 37.2573 735.082 37.2883 734.053 37.3059C733.424 37.319 732.901 37.3479 732.513 37.3909C732.126 37.4339 731.882 37.4902 731.796 37.5564L734.093 37.8457C733.357 37.9162 732.811 37.95 732.325 37.9933C732.601 38.0843 733.074 38.1783 733.709 38.2682C734.345 38.3581 735.124 38.4414 735.988 38.5117C736.22 38.5262 736.456 38.5368 736.683 38.5428C736.91 38.5489 737.123 38.5504 737.31 38.547C739.089 38.4478 741.17 38.623 743.19 38.7887C745.211 38.9544 746.308 39.0543 747.8 39.1832L750.655 39.2005C751.377 39.2615 752.022 39.3332 752.538 39.41C753.053 39.4867 753.424 39.5663 753.623 39.6424C753.469 39.7648 752.115 39.6978 751.308 39.7104C749.394 39.7866 746.877 39.7703 744.175 39.6643C743.505 39.6252 742.818 39.6568 742.166 39.6605C740.76 39.6758 739.408 39.7006 738.118 39.7348C737.268 39.7667 736.473 39.8061 735.74 39.8528C735.544 40.0086 738.629 40.1289 736.878 40.2059C737.481 40.2411 737.707 40.2901 738.017 40.2724C740.003 40.3735 741.959 40.4235 743.66 40.4166C746.924 40.3951 750.629 40.4661 754.474 40.6237C758.624 40.7871 762.605 40.8556 766.088 40.8238C767.415 40.822 768.897 40.8554 770.423 40.9216C772.226 41.0133 774.015 41.0709 775.676 41.0908C776.226 41.0915 776.839 41.1071 777.464 41.1363C778.09 41.1656 778.71 41.2076 779.276 41.2591C779.227 41.298 778.688 41.3263 778.808 41.3452C780.527 41.6367 781.224 41.9401 783.869 42.2379C785.678 42.3434 787.755 42.4646 788.938 42.3247C790.121 42.1847 789.697 42.0644 787.343 41.706C787.854 41.7009 788.469 41.7176 789.081 41.7533C789.693 41.7891 790.264 41.8415 790.693 41.9015L792.729 42.1697L794.563 42.426C794.402 42.554 794.276 42.6541 794.143 42.7599C793.934 42.8721 794.164 43.0088 794.803 43.1507C795.188 43.2281 795.523 43.3056 795.806 43.3824C796.953 43.6895 797.285 43.9798 796.765 44.2207C795.769 44.5671 794.381 44.8858 792.619 45.1731C790.757 45.4526 789.738 45.8052 788.204 46.1099C787.422 46.2486 786.472 46.3729 785.364 46.4815C783.262 46.7232 780.96 46.9531 778.851 47.2003C776.742 47.4474 774.362 47.625 772.02 47.8287C768.533 48.0705 764.764 48.2793 760.734 48.454C758.241 48.6071 755.68 48.7562 753.373 48.9322C750.649 49.1304 747.448 49.2729 743.852 49.3558C740.675 49.4551 737.836 49.602 735.391 49.7936C735.134 49.8143 734.932 49.8407 734.789 49.872C734.348 50.0674 733.114 50.2051 731.275 50.2641C731.387 50.3213 731.53 50.3795 731.703 50.4384C731.959 50.5086 732.012 50.5742 731.856 50.6269C731.7 50.6795 731.342 50.7167 730.829 50.7337C729.357 50.7821 728.135 50.8643 727.215 50.9767C726.877 51.0048 726.668 51.0459 726.604 51.0963C726.541 51.1467 726.626 51.2049 726.851 51.266C727.051 51.3288 727.066 51.3866 726.893 51.4319C726.721 51.4772 726.369 51.508 725.884 51.5201C724.639 51.5796 723.306 51.6274 721.893 51.6634C718.886 51.7426 715.389 51.7416 711.613 51.6606C711.211 51.6371 710.806 51.6732 710.337 51.6458C707.667 51.555 705.186 51.5409 703.197 51.6053C700.864 51.6304 698.425 51.6254 695.966 51.6372C692.412 51.6293 689.134 51.6771 686.223 51.7792C682.895 51.6805 681.025 51.8521 678.217 51.8554C675.623 51.873 673.166 51.9152 670.866 51.9818C667.16 52.07 663.467 52.1471 659.814 52.2504C656.386 52.2996 653.231 52.3937 650.4 52.531C649.315 52.5931 647.351 52.4965 646.612 52.6265C645.874 52.7566 644.383 52.7412 643.178 52.7844L639.376 52.891C638.722 52.9163 638.004 52.9324 637.231 52.9389C633.696 52.9476 631.248 53.1213 627.968 53.1567L627.633 53.1372C621.808 53.3953 615.142 53.537 607.831 53.5581C603.56 53.6373 598.891 53.6335 594.359 53.6915C593.279 53.8076 590.726 53.6645 589.37 53.7705C588.014 53.8765 585.8 53.8071 584.053 53.8245C582.305 53.8419 580.596 53.8855 578.728 53.884C577.106 53.8845 575.737 53.9318 574.744 54.0217C572.478 54.1703 569.716 54.2576 566.581 54.2798C562.433 54.3184 558.512 54.4061 554.293 54.3868C554.353 54.4951 554.095 54.5872 553.543 54.6537C552.992 54.7202 552.168 54.7586 551.156 54.7651C546.646 54.8064 542.555 54.914 537.985 54.9459L536.762 54.9462L523.093 55.0083C519.41 55.0203 515.862 55.0402 512.105 55.0538C510.698 54.9717 510.664 55.113 509.691 55.0861C509.419 55.0165 509.098 54.9858 508.619 55.0236L508.514 55.107L492.914 55.2177C486.806 55.2987 480.381 55.323 473.694 55.2904C472.108 55.2985 470.627 55.3262 469.276 55.3729C468.023 55.3899 466.717 55.3974 465.364 55.3954C463.535 55.3744 461.748 55.3638 460.011 55.3636C455.44 55.3955 450.644 55.3783 445.639 55.355C440.635 55.3316 436.843 55.3731 432.389 55.3699C429.372 55.367 426.369 55.353 423.247 55.3201C421.756 55.3047 419.919 55.2214 418.375 55.191C416.831 55.1606 416.327 55.1611 416.123 55.2089C415.451 55.3429 413.763 55.2562 412.413 55.2432C409.78 55.2209 409.406 55.1752 408.691 54.8289L411.921 54.7188C412.713 54.6833 413.709 54.6771 414.813 54.7007C415.917 54.7243 417.092 54.777 418.224 54.8538C418.67 54.8866 419.135 54.9126 419.595 54.9302C420.054 54.9478 420.498 54.9566 420.9 54.9562C424.159 54.9374 427.373 54.898 430.506 54.8659L430.964 54.8448L430.992 54.536C430.578 54.5056 430.148 54.4806 429.72 54.4617L414.007 54.2613C410.402 54.2121 406.658 54.1011 403.119 54.0558C399.581 54.0105 397.674 53.9828 394.928 53.936C393.769 53.9094 392.588 53.8743 391.393 53.8312C391.462 53.8015 391.502 53.7698 391.511 53.7366C391.574 53.6865 391.658 53.6198 391.15 53.5662C390.596 53.4907 389.856 53.4261 389.076 53.3855C388.345 53.3586 387.635 53.3435 386.976 53.3405C383.789 53.3146 380.149 53.1515 376.833 52.8859L375.675 53.0632C370.694 52.9636 365.64 52.8656 360.437 52.771C359.396 52.7452 358.302 52.6957 357.24 52.6262C356.101 52.5597 355.053 52.4209 353.854 52.345C352.669 52.2903 351.493 52.2477 350.346 52.2179C350.657 52.1723 351.066 52.1358 351.561 52.1097C352.048 52.1005 352.403 52.072 352.575 52.0283C352.746 51.9846 352.725 51.928 352.514 51.8667C352.143 51.7614 351.98 51.6623 352.787 51.6497C353.532 51.6257 354.066 51.5737 354.324 51.4999C354.583 51.4261 354.555 51.3336 354.245 51.2332C354.11 51.1745 354.014 51.117 353.958 51.0612L353.623 51.0416C352.518 50.8338 350.312 50.7587 348.728 50.5887C347.98 50.5393 347.206 50.511 346.528 50.508C344.776 50.4715 343.07 50.4555 341.259 50.4095C340.393 50.3883 339.488 50.3497 338.597 50.296C337.324 50.2217 337.19 50.2139 336.451 49.9438C337.599 49.9485 338.508 49.9082 339.027 49.8296C339.545 49.751 339.639 49.639 339.294 49.5126C338.347 49.2363 337.347 48.9451 333.064 48.7488C334.461 48.7391 335.805 48.7199 337.091 48.6912C337.466 48.6851 337.746 48.6648 337.894 48.6331C338.043 48.6014 338.053 48.5598 337.923 48.5139C337.793 48.468 337.529 48.4199 337.167 48.3762C336.805 48.3325 336.362 48.2951 335.896 48.2691C333.635 48.1129 331.277 48.0083 329.085 47.9672C327.238 47.9489 325.571 47.9592 323.414 47.9587L320.869 47.8101C320.911 47.7767 320.537 47.731 320.632 47.7127C321.279 47.5414 321.992 47.374 322.727 47.19C321.553 47.0906 320.537 46.9707 319.793 46.8438C319.05 46.717 318.61 46.5884 318.523 46.4729C318.46 46.438 318.477 46.4062 318.572 46.3798C318.667 46.3534 318.839 46.3329 319.075 46.3199C319.745 46.2976 320.263 46.2549 320.587 46.1952C320.912 46.1354 321.035 46.0602 320.947 45.9753L318.967 45.6627C313.006 45.4396 307.153 45.2803 301.515 45.1876L296.425 45.1174C295.811 45.0338 296.001 44.9971 296.579 44.995C297.157 44.9929 298.782 45.0161 299.917 45.0286C300.897 45.045 301.767 45.0342 302.444 44.9973C303.12 44.9604 303.579 44.8986 303.777 44.818L302.068 44.4614C302.152 44.3947 302.271 44.3001 303.198 44.3064C303.832 44.2987 304.298 44.2651 304.523 44.211C304.747 44.1569 304.717 44.0856 304.436 44.0084C304.393 43.9526 304.457 43.9017 304.625 43.8582C305.996 43.8546 307.36 43.8565 308.603 43.8396C309.183 43.8339 309.672 43.8132 310.038 43.7789C310.403 43.7446 310.637 43.6975 310.723 43.6408C310.768 43.5854 310.659 43.5223 310.404 43.4566C310.149 43.3909 309.756 43.3245 309.257 43.2626C307.308 43.1861 305.524 43.1851 304.299 43.2599C303.862 43.3185 303.16 43.3505 302.285 43.3517C301.411 43.3529 300.405 43.3232 299.4 43.2666C298.25 43.2013 297.102 43.1726 296.163 43.1857C295.224 43.1987 294.555 43.2527 294.277 43.3378C293.096 43.3047 292.049 43.2795 291.016 43.2431C289.798 43.1972 288.646 43.1836 287.686 43.204C286.149 43.2183 284.493 43.2099 282.755 43.179C277.747 43.1016 272.731 43.0299 267.882 42.9977C266.599 42.9885 265.489 43.0133 264.22 42.993C262.951 42.9726 261.947 43.0275 260.36 42.917C260.058 42.8998 259.754 42.8888 259.472 42.8848C259.19 42.8807 258.938 42.8838 258.735 42.8938C255.949 42.9812 252.682 42.9936 249.126 42.9302C244.255 42.9146 239.205 42.8707 234.327 42.8607C232.897 42.8693 231.545 42.8923 230.286 42.9294C229.327 42.9519 228.324 42.9671 227.28 42.975C226.48 42.982 225.715 42.9612 225.85 43.0826C225.985 43.2039 224.786 43.128 224.095 43.1056C221.721 43.0468 219.295 42.9671 216.844 42.8675C214.429 42.7593 212.062 42.6963 209.886 42.6824C208.314 42.6742 206.693 42.705 204.672 42.5393C204.749 42.4781 204.826 42.4169 205.266 42.353C203.618 42.1772 201.738 42.0259 199.781 41.9117C197.823 41.7974 195.846 41.7236 194.011 41.6961L191.481 41.3634C190.858 41.3243 190.222 41.2958 189.612 41.2797C189.002 41.2636 188.43 41.2602 187.931 41.2696C187.546 41.2745 187.077 41.2621 186.609 41.2348C186.141 41.2075 185.707 41.1671 185.386 41.1211C184.905 41.0625 184.318 41.0119 183.699 40.9757C183.079 40.9396 182.454 40.9194 181.902 40.9177C180.164 40.8815 178.308 40.798 176.525 40.6756C176.063 40.6039 175.773 40.5297 175.691 40.4624C175.61 40.395 175.741 40.3374 176.067 40.2965C176.594 40.2244 176.89 40.1325 176.937 40.0265C176.984 39.9204 176.781 39.8023 176.34 39.6794C176.115 39.604 176.039 39.5325 176.119 39.4694C176.198 39.4063 176.43 39.3528 176.802 39.3122C178.189 39.1244 177.818 39.0192 175.549 38.7076C175.18 38.6556 174.736 38.6071 174.244 38.565C173.752 38.523 173.224 38.4883 172.692 38.4632C171.444 38.4124 170.214 38.3747 169.022 38.3506C168.352 38.3115 167.665 38.343 166.894 38.3278C163.034 38.2519 162.469 38.1293 161.219 37.8653L160.308 37.6747C158.619 37.5204 156.771 37.3922 154.898 37.2995C153.025 37.2067 151.174 37.1516 149.477 37.1382C148.803 37.1372 148.028 37.1108 147.27 37.0631C144.806 36.9173 142.31 36.8164 139.948 36.7671C138.476 36.7394 136.89 36.6676 135.379 36.5603C133.868 36.4531 132.497 36.315 131.432 36.1626C130.474 36.0253 129.221 35.9021 127.848 35.8101C126.24 35.7163 126.091 35.606 126.989 35.5211C127.887 35.4361 129.391 35.3268 130.725 35.2375C131.19 35.2072 131.478 35.1578 131.557 35.0949C131.636 35.0321 131.503 34.9582 131.173 34.8815C130.961 34.7502 130.925 34.6256 131.064 34.5108C131.138 34.4631 131.087 34.4084 130.913 34.3503C130.74 34.2923 130.448 34.2323 130.057 34.1744C129.666 34.1166 129.186 34.0621 128.649 34.0148C128.112 33.9674 127.53 33.9283 126.942 33.9C124.463 33.7553 122.052 33.6145 119.524 33.5088C118.464 33.459 117.406 33.3972 116.375 33.325C114.264 33.1465 112.006 32.9985 109.732 32.8895C108.652 32.8408 107.597 32.7556 106.794 32.6524C104.262 32.3743 101.928 32.0819 99.8362 31.7805C99.3319 31.687 98.6722 31.5958 97.8982 31.5126C97.1242 31.4294 96.2528 31.356 95.3386 31.297C94.6016 31.254 94.0017 31.1593 93.4338 31.0963C93.021 30.9504 92.9769 30.8154 93.3056 30.704C93.6344 30.5926 94.3253 30.5085 95.3133 30.4595C96.2502 30.4007 97.1269 30.3324 97.9368 30.2603C98.9131 30.2019 100.074 30.1669 101.376 30.1564C102.917 30.1251 104.057 30.0355 104.647 29.8994C100.426 29.6531 96.4128 29.2994 92.7132 29.3821L89.9023 29.1583C90.0142 29.0693 90.1122 28.9914 90.2032 28.9191C90.8716 28.7874 91.0805 28.6214 90.8119 28.435C90.5904 28.3449 90.6104 28.2629 90.8698 28.1973C91.1291 28.1316 91.6185 28.0848 92.2887 28.0614C96.2582 27.8213 100.849 27.6592 104.571 27.3868C105.738 27.3356 107.105 27.3124 108.613 27.3181C110.071 27.3017 110.01 27.1787 108.331 27.027C107.389 26.9477 106.429 26.8717 105.454 26.7993C101.154 26.7872 99.4026 27.1508 94.4961 27.0496L92.222 26.5705C91.607 26.5631 91.0101 26.5602 90.4352 26.5618L82.2082 26.7564C81.523 26.7662 80.9895 26.7995 80.6686 26.8525C80.3476 26.9056 80.252 26.9763 80.3925 27.0565C80.4482 27.1548 80.3349 27.2449 80.0566 27.3236C79.8772 27.3787 79.992 27.452 80.3758 27.5274C81.2407 27.6973 80.1309 27.7221 79.43 27.7648C79.2508 27.769 79.0442 27.7685 78.8222 27.7635C78.6002 27.7584 78.3671 27.7489 78.1365 27.7355C77.9059 27.722 77.6824 27.7049 77.479 27.6851C77.2755 27.6653 77.0961 27.6432 76.9512 27.6201C75.7163 27.4585 74.6362 27.2879 73.4223 27.1096C74.2841 26.9389 73.2701 26.6588 74.6149 26.5044C74.7653 26.4735 74.8255 26.4359 74.7918 26.3939C74.7581 26.3519 74.6311 26.3063 74.4188 26.26C73.8712 26.1404 73.6104 26.0239 73.6627 25.9221C73.7149 25.8203 74.0784 25.7368 74.7165 25.6802L74.7935 25.619C73.1106 25.4133 73.5565 25.2303 72.8955 25.0125L71.2766 24.8703C67.2489 24.5277 67.2419 24.5333 63.7743 24.5459C63.0753 24.4155 63.9634 24.3957 64.6293 24.3808L70.2066 24.2345C73.8532 24.1368 77.6058 24.0692 81.6793 24.0322C85.7528 23.9953 90.2942 23.8721 94.5048 23.7835C94.7177 23.7766 94.8805 23.763 94.9796 23.7439C95.0788 23.7247 95.1113 23.7005 95.0746 23.6734C94.9073 23.644 94.6882 23.6157 94.4336 23.5905C94.179 23.5653 93.8954 23.5439 93.6037 23.5278C92.2638 23.4496 90.889 23.3992 89.4611 23.3338L86.7993 23.2203L85.9804 23.071C85.4474 22.9801 85.0833 22.8693 84.3744 22.804C83.7901 22.7553 83.1559 22.7184 82.5377 22.697C81.9196 22.6757 81.3401 22.6706 80.8598 22.6825C79.528 22.7123 78.3231 22.7554 77.0512 22.7947C75.7794 22.8339 75.0784 22.8766 73.9756 22.8958C71.7348 22.9046 69.5693 22.9277 67.4884 22.9651C65.7357 23.0536 64.1145 23.1585 62.6351 23.279C61.7122 23.3267 60.8492 23.3838 59.2733 23.3217C58.5257 23.2654 57.8809 23.1914 57.4531 23.1129C57.0253 23.0343 56.8423 22.9563 56.9364 22.8927C57.0209 22.8428 57.2603 22.8034 57.6319 22.778C58.0035 22.7527 58.495 22.7423 59.0601 22.7479C60.6419 22.7387 62.1046 22.7079 63.4187 22.6559C65.2479 22.5618 67.4746 22.5212 69.9689 22.5366C70.8148 22.5501 71.3818 22.4996 72.1217 22.4831C72.8616 22.4665 73.4884 22.4255 74.3134 22.4557C76.8761 22.5336 78.1049 22.4142 79.6407 22.3367C80.1606 22.3023 80.4827 22.2467 80.5716 22.176C80.6605 22.1053 80.5128 22.0223 80.1445 21.9361C79.4357 21.7644 78.5686 21.5917 77.5567 21.4208C77.036 21.3367 76.3687 21.2569 75.6075 21.1876C74.8462 21.1183 74.0115 21.0614 73.1689 21.0213C72.6646 20.9162 72.3956 20.8128 72.3862 20.7205C72.3767 20.6281 72.6272 20.5498 73.1149 20.4927C74.3577 20.3621 75.4594 20.2294 78.2442 20.3023C79.5534 20.3302 80.7856 20.3355 81.8916 20.3181C84.345 20.2943 87.175 20.3464 90.1149 20.4696C90.8756 20.5012 91.6232 20.5227 92.3357 20.5335C97.4182 20.6092 102.261 20.647 107.117 20.6736C109.69 20.6864 112.284 20.6825 114.969 20.7199C121.268 20.8008 127.001 20.7592 133.08 20.7856C136.264 20.7991 139.114 20.7446 141.481 20.6249C141.941 20.5847 142.337 20.5379 142.663 20.4849C141.095 20.3458 139.373 20.2357 137.661 20.165C135.949 20.0944 134.305 20.0656 132.887 20.0815C132.108 20.1205 131.1 20.1276 129.976 20.1021C128.853 20.0766 127.658 20.0195 126.525 19.9371L129.819 19.8905C132.004 19.8688 134.242 19.862 136.367 19.8307C139.742 19.7769 142.871 19.6908 146.366 19.6559C149.189 19.6239 151.714 19.5419 153.864 19.4127C155.416 19.3184 157.19 19.2516 159.148 19.2135C160.54 19.1932 160.54 19.1932 161.43 19.0003C160.724 18.8755 159.811 18.858 158.951 18.8556C153.796 18.7771 148.889 18.7633 144.332 18.8146C142.033 18.8192 139.993 18.8721 138.311 18.9708C137.899 19.0125 136.845 18.9927 135.999 18.9792C133.348 18.9586 130.813 18.9646 128.426 18.997C125.126 19.0512 121.451 19.0383 117.543 18.9591C116.802 18.8621 117.655 18.87 117.697 18.8367C120.724 18.7744 123.691 18.7027 126.777 18.65C127.621 18.6312 128.523 18.6219 129.473 18.6222C133.019 18.6549 135.975 18.5643 137.925 18.363C138.023 18.2851 139.306 18.2943 139.873 18.2438C140.152 18.2001 140.337 18.1486 140.424 18.0909C139.598 17.9471 138.665 17.9463 137.946 17.9462C135.86 17.9622 133.853 17.9927 131.935 18.0373C130.151 18.0798 128.178 18.0911 126.067 18.0711C124.509 18.0518 123.177 18.0816 121.606 18.0734C120.753 18.0563 119.87 18.0289 118.976 17.9916C119.972 17.8914 121.326 17.8298 122.942 17.8111C124.168 17.7512 125.701 17.7332 125.897 17.5774C125.318 17.466 124.673 17.4642 124.155 17.4757C123.077 17.4753 122.036 17.4823 121.036 17.4968C118.918 17.5284 116.624 17.5289 114.203 17.4981C112.928 17.4866 111.719 17.49 110.594 17.5084C108.047 17.5329 105.605 17.5875 103.272 17.6126C98.4938 17.6382 94.1355 17.7303 89.544 17.7788C88.5221 17.7908 87.6061 17.8329 86.2592 17.7603C84.9123 17.6876 84.8524 17.6781 84.6934 17.633C84.3165 17.5578 84.2023 17.4848 84.3744 17.4293C84.6415 17.3774 85.162 17.3485 85.8431 17.3478C89.9475 17.2653 93.8406 17.1494 97.4978 17.0008C99.1073 16.9711 100.518 16.9104 101.679 16.8209C102.601 16.7592 103.694 16.7184 104.924 16.6997C106.713 16.6551 108.578 16.6225 110.512 16.6019C111.412 16.5908 112.177 16.5578 112.762 16.5047C113.348 16.4517 113.742 16.3798 113.921 16.2932L111.55 16.0055C111.177 15.9921 110.808 15.9805 110.443 15.9708L90.7661 16.178L88.8174 16.1837C86.6816 16.1665 86.1597 16.1241 84.1338 15.7909C88.7573 15.7125 92.3918 15.484 94.6754 15.1281C94.1266 15.0899 93.564 15.057 93.0005 15.0304C89.3056 14.9462 85.8128 14.9239 82.6566 14.9641C80.7818 14.9682 78.854 14.9572 76.9193 14.9518C77.4851 14.7877 79.6528 14.8366 81.0657 14.7996C84.4414 14.7418 87.4266 14.6222 89.9257 14.4448C90.7873 14.3757 91.8652 14.3314 93.1101 14.3142C94.356 14.3082 95.3967 14.2664 96.1417 14.1922C96.8867 14.1181 97.3133 14.0139 97.3845 13.8888C97.5018 13.7755 97.7548 13.6703 98.1394 13.5746C97.4589 13.4388 96.3783 13.3088 95.1004 13.2089C93.8226 13.109 92.4353 13.0462 91.1989 13.0321C88.5595 12.9762 85.8219 12.8847 83.0557 12.7599C81.6778 12.697 80.3267 12.6608 79.0901 12.6539C77.9996 12.6485 76.76 12.6031 75.5605 12.5244C74.361 12.4458 73.2675 12.3383 72.4466 12.2184C71.3387 12.0701 70.3046 11.9202 69.2707 11.7702C68.2367 11.6203 67.0369 11.4308 65.83 11.2469C64.7658 11.2182 63.7295 11.1997 62.7353 11.1917C61.9617 11.1985 61.0591 11.1784 60.1339 11.1339C59.2087 11.0895 58.2994 11.0224 57.5136 10.9407C57.9745 10.8601 58.4955 10.789 59.0444 10.6956C58.291 10.5723 57.7447 10.4466 57.4389 10.3261C57.133 10.2055 57.074 10.0928 57.2654 9.99461C57.3774 9.90559 56.5583 9.75627 56.2753 9.63823C55.9109 9.53647 55.8425 9.4415 56.0789 9.36578C56.3153 9.29006 56.8456 9.23713 57.6001 9.21391C58.5359 9.17106 59.2976 9.10652 59.8537 9.02296C60.0377 9.00126 60.1314 8.97155 60.1261 8.93654C60.1209 8.90154 60.017 8.86235 59.8238 8.82256C59.6306 8.78277 59.3543 8.74365 59.0203 8.70878C58.6863 8.67391 58.3052 8.64441 57.9118 8.62296C56.7067 8.56216 55.5099 8.52275 54.3901 8.507C52.461 8.47802 50.6142 8.45981 48.8497 8.45238C46.8983 8.4412 44.7273 8.37218 42.5573 8.25234C40.6144 8.13895 38.8726 8.03729 37.9226 7.8206C36.9726 7.60391 35.4537 7.61082 34.2858 7.45307C34.9418 7.31088 36.108 7.21208 37.6664 7.16665C38.6862 7.15043 39.5375 7.10787 40.1656 7.04169C40.7937 6.97551 41.1848 6.88717 41.3139 6.78234L37.768 6.34249C34.9362 6.13541 33.3695 6.29479 30.3098 6.21176L33.4624 6.04939C33.5257 6.03334 33.5494 6.0145 33.5324 5.99375C33.2263 5.66535 32.7393 5.59512 29.5166 5.413L27.7078 5.30744L24.845 5.18215C24.3865 5.11485 24.0694 5.04467 23.9253 4.97862C23.7812 4.91256 23.8152 4.85297 24.024 4.80578C24.4434 4.72643 24.5709 4.62502 24.3948 4.51091C24.1171 4.43532 24.0942 4.36563 24.33 4.31394C24.5658 4.26225 25.0454 4.23182 25.6856 4.22793C26.1965 4.22192 26.2345 4.13455 26.5124 4.08509C26.7886 4.0169 27.2613 3.96458 27.8983 3.93169C28.5353 3.89879 29.3215 3.88608 30.2038 3.89444C32.8049 3.90126 35.2485 3.87567 37.491 3.81811L37.089 3.79465C39.4264 3.84518 41.6117 3.85131 43.5383 3.81274C45.4691 3.76418 47.9469 3.79533 49.9977 3.76572C51.6672 3.77251 52.9383 3.70531 53.5412 3.57839C54.1251 3.4572 56.2468 3.48548 57.8717 3.50865C58.8342 3.52363 59.7644 3.52998 60.6525 3.52762C61.8445 3.50019 63.3348 3.52605 64.8751 3.60088C65.3372 3.62388 65.7925 3.63606 66.197 3.63623C70.1126 3.66768 74.021 3.7047 77.8836 3.72112C78.7752 3.71166 79.8207 3.73331 80.8973 3.78354C81.3498 3.80534 81.7902 3.81437 82.1593 3.80942C88.2626 3.75954 95.1498 3.8868 101.133 3.81797C101.858 3.80172 102.661 3.79834 103.519 3.80792C105.447 3.84835 107.12 3.82233 108.286 3.73382C108.916 3.68674 109.722 3.6608 110.655 3.65765C111.587 3.6545 112.625 3.67421 113.703 3.71552C115.496 3.77022 117.153 3.77615 118.499 3.73269C121.124 3.69253 123.885 3.67602 126.759 3.68328C127.64 3.69031 128.414 3.6747 129.022 3.63768C129.63 3.60066 130.055 3.54321 130.264 3.46978C129.558 3.34497 128.786 3.32978 128.053 3.34075C125.212 3.31231 122.379 3.27831 119.591 3.2649C117.096 3.22662 114.702 3.21492 112.444 3.22997C111.323 3.24694 109.924 3.20823 108.552 3.12228C106.871 3.01342 105.14 2.95933 103.708 2.97097C102.647 2.97385 101.527 2.96448 100.364 2.94297C99.6195 2.91704 98.8564 2.87251 98.1531 2.81395C97.874 2.78851 97.5702 2.76713 97.2612 2.75116C96.9522 2.73519 96.6449 2.725 96.3587 2.72122C96.0724 2.71744 95.8135 2.72015 95.5988 2.7292C95.384 2.73825 95.2181 2.75344 95.1115 2.77378C94.0347 2.94384 91.6268 2.85705 89.565 2.83824C86.4752 2.55042 84.1757 2.72077 81.2879 2.5582C81.0596 2.54743 80.8345 2.5409 80.6267 2.53903C80.4189 2.53717 80.2326 2.54001 80.079 2.54736C74.4906 2.64521 67.9774 2.56367 62.11 2.59746C61.4629 2.6024 60.7118 2.58546 59.9422 2.54858C54.9123 2.30443 50.0762 2.23512 46.3795 2.3542C45.9297 2.36492 45.4181 2.36538 44.8677 2.35554C42.3403 2.25851 39.9233 2.21983 37.8185 2.24272C34.5198 2.23532 31.3482 2.24132 27.9965 2.21889C25.6861 2.18697 23.6593 2.22107 22.1191 2.31778C22.0701 2.35672 21.0442 2.31476 20.2582 2.31069C19.8062 2.21265 19.4144 2.12409 18.9484 2.03717C18.5318 1.92965 17.9078 1.82083 17.1189 1.71811C16.3299 1.6154 15.3945 1.52118 14.3757 1.44184C12.6339 1.34018 12.4597 1.19265 13.6785 1.13838C16.8201 0.958814 20.7705 0.885322 25.2392 0.923291C28.9748 0.926327 32.7775 0.933279 36.5661 0.951349C38.7759 0.966855 41.1055 1.00129 43.2552 1.00732C43.9807 1.02057 44.7258 1.0401 45.4831 1.06569C46.4122 1.10279 47.3143 1.12301 48.1408 1.12525C50.7948 1.094 53.7566 1.12123 56.885 1.20562C58.0309 1.22402 59.1312 1.23022 60.1696 1.22413C62.6261 1.20122 65.2894 1.21808 68.0887 1.27426C69.8286 1.30593 71.5156 1.3225 73.1323 1.32377C73.7032 1.32724 74.1682 1.30062 74.7181 1.32078C79.5587 1.53163 82.9863 1.37933 87.3428 1.46041C89.4602 1.48302 91.4831 1.48308 93.3831 1.4606C97.0911 1.46169 100.902 1.48481 104.802 1.52986C109.958 1.60388 114.737 1.57819 119.66 1.60875C120.632 1.61518 121.571 1.61408 122.469 1.60547C126.838 1.54859 131.584 1.56066 136.591 1.64136C137.727 1.65303 138.748 1.63877 139.59 1.5995C140.431 1.56023 141.075 1.49678 141.48 1.41314C141.651 1.35573 141.54 1.28116 141.168 1.20383C140.55 1.10506 139.852 1.00829 139.086 0.915108L111.218 0.602432C110.047 0.586102 108.906 0.577314 107.799 0.576099C104.545 0.573379 101.19 0.549055 97.7513 0.503245C94.3537 0.460215 91.1079 0.467854 87.8163 0.454898C86.8467 0.450558 85.8515 0.440319 84.8347 0.424209C77.9618 0.296707 71.2601 0.218828 64.7766 0.191138C62.0489 0.187208 59.1022 0.128691 56.3215 0.109725C53.5408 0.0907571 49.7382 0.0838121 46.4395 0.0764215L36.2267 0.0775549C34.218 0.0737821 32.2621 0.0850417 30.3133 0.0907415C27.9484 -0.316021 27.1335 -0.411362 23.9778 -0.589571C22.8982 -0.655308 21.8 -0.694537 20.8121 -0.702665C17.6795 -0.67051 13.7488 -0.804366 10.7781 -0.786643C8.9856 -0.795384 7.46454 -0.750197 6.3707 -0.655708C5.42116 -0.581551 4.33535 -0.522872 3.13002 -0.480557C-0.171753 -0.828533 -0.462737 -1.05453 2.02096 -1.14248C2.69388 -1.16293 3.62077 -1.1566 4.1067 -1.1999C4.38552 -1.22628 4.76641 -1.24136 5.21902 -1.24396C5.67163 -1.24657 6.18344 -1.23663 6.71431 -1.21493C8.38978 -1.15798 9.96018 -1.14459 11.2679 -1.17609C12.4987 -1.21779 14.0073 -1.21613 15.6484 -1.17126C16.8543 -1.10087 17.9142 -1.20026 18.9571 -1.22897C19.9999 -1.25768 20.8558 -1.30926 22.4846 -1.23211C22.7829 -1.21674 23.079 -1.20752 23.3503 -1.20515C23.6215 -1.20278 23.8607 -1.20731 24.0495 -1.21841C25.7989 -1.2681 27.8865 -1.26288 30.1429 -1.20318C33.6034 -1.14442 36.8503 -1.14222 39.7708 -1.19664C41.5191 -1.24426 43.0097 -1.3287 44.1843 -1.44667C44.5044 -1.48612 44.9798 -1.50978 45.565 -1.51538C48.5035 -1.49076 51.6941 -1.39812 54.9312 -1.24344C56.1507 -1.18146 57.3685 -1.13244 58.5588 -1.09741C61.0052 -1.0196 63.3714 -0.975993 65.5871 -0.967891C68.8069 -0.966605 72.1591 -0.936668 75.6141 -0.878345C77.7464 -0.845873 79.8009 -0.833888 81.7534 -0.84252C83.7602 -0.846589 85.9029 -0.821817 88.1329 -0.768783C90.3505 -0.725566 92.3048 -0.750467 93.7601 -0.840473C94.2394 -0.888976 94.6254 -0.946569 94.911 -1.01218C91.664 -1.22568 88.3059 -1.33419 85.5128 -1.31585C84.4519 -1.32999 83.571 -1.31571 82.4531 -1.39888L82.4181 -1.37106C82.1956 -1.35301 81.86 -1.34875 81.4752 -1.35909C81.0903 -1.36944 80.6832 -1.39366 80.3314 -1.42716C80.4643 -1.53286 80.5903 -1.63301 80.6812 -1.70533C82.8093 -1.69257 84.8756 -1.69361 86.8697 -1.70844C88.5505 -1.72978 90.8322 -1.54286 92.287 -1.61322C95.1248 -1.52523 96.9315 -1.64672 99.4763 -1.61166C102.021 -1.57661 104.824 -1.46081 107.369 -1.42575C109.589 -1.40651 111.745 -1.40233 113.825 -1.41323C114.543 -1.42852 115.37 -1.42493 116.256 -1.40268C117.503 -1.36083 118.662 -1.35382 119.601 -1.38245C120.54 -1.41109 121.221 -1.47422 121.566 -1.5646C121.241 -1.64925 120.803 -1.75842 120.298 -1.8715C121.227 -1.96441 122.638 -2.00354 124.321 -1.98305L126.7 -1.98754C127.331 -1.98508 127.812 -2.0102 128.046 -2.0577C128.28 -2.10519 128.248 -2.17142 127.956 -2.2427C123.445 -2.60151 123.279 -2.64106 119.969 -2.41027L115.573 -2.51752L115.647 -2.51917ZM175.101 -1.53352L174.766 -1.55307L175.101 -1.53352ZM722.879 36.6418L722.802 36.703L722.886 36.6362L723.623 36.6792L723.672 36.6403L722.879 36.6418ZM615.883 9.8178C614.841 9.75103 613.79 9.68965 612.734 9.63403C612.458 9.6254 612.199 9.62345 611.98 9.62834C611.761 9.63324 611.588 9.64483 611.476 9.66213C611.392 9.72889 611.981 9.77521 612.517 9.80649C613.193 9.8486 613.884 9.87535 614.517 9.884C615.151 9.89264 615.706 9.88288 616.123 9.8557L616.729 9.83133L615.883 9.8178ZM79.3792 26.0897C80.065 26.1009 80.7153 26.1027 81.3141 26.0951C83.9708 26.0412 86.5144 25.9627 89.2381 25.9126C92.6746 25.7856 96.6236 25.7338 100.937 25.7593C102.622 25.7718 104.045 25.7306 105.041 25.6406C105.638 25.5923 106.407 25.564 107.303 25.5576L118.706 25.4109C119.411 25.3805 120.02 25.3378 120.52 25.2839C119.515 25.2252 118.845 25.1861 118.443 25.1627C117.609 25.1561 116.892 25.1739 116.364 25.2145C115.797 25.2833 114.839 25.3105 113.679 25.2907C112.509 25.2744 111.367 25.2656 110.261 25.2644C108.171 25.2678 106.067 25.2824 103.97 25.2914C103.154 25.4827 100.747 25.3959 98.6848 25.3771L97.092 25.3856C91.8854 25.4848 86.912 25.6212 82.1958 25.7942C81.2843 25.8235 80.499 25.8702 79.8642 25.9329C79.625 25.9817 79.5484 26.0427 79.6402 26.1109L79.3054 26.0913L79.3792 26.0897ZM311.882 44.3773C313.145 44.3903 314.461 44.4171 315.809 44.4572C316.848 44.4981 317.861 44.523 318.809 44.5307C324.119 44.5736 329.653 44.6726 335.336 44.8265C336.079 44.8498 336.793 44.8612 337.451 44.8603L342.102 44.8213C343.568 44.7993 343.596 44.7771 342.529 44.4819C341.643 44.4246 340.748 44.3723 339.849 44.3255C339.313 44.2942 338.442 44.2434 338.239 44.2912C336.996 44.4217 334.729 44.3372 332.822 44.3095C327.303 44.2382 321.61 44.1329 316.038 44.0465C314.86 44.0254 313.718 44.0147 312.626 44.0146C311.948 44.0102 311.33 44.0185 310.797 44.0393C310.642 44.0414 310.511 44.0476 310.415 44.0574C310.319 44.0672 310.259 44.0805 310.239 44.0962C310.219 44.112 310.24 44.13 310.3 44.149C310.36 44.1679 310.458 44.1874 310.587 44.2062C311.043 44.2719 311.57 44.3348 312.15 44.3929L311.882 44.3773ZM352.315 1.53557L357.752 1.50058C358.404 1.49682 358.957 1.45743 359.655 1.47428C363.378 1.52767 366.826 1.5128 369.85 1.4303C370.88 1.39663 372.085 1.3899 373.399 1.41047C377.421 1.47144 381.216 1.47394 384.68 1.41792C386.918 1.40668 389.014 1.36892 390.934 1.3052C391.082 1.2904 391.174 1.27032 391.204 1.24632C391.234 1.22232 391.202 1.19496 391.109 1.16611C391.085 1.14788 391.019 1.12827 390.916 1.10864C390.813 1.089 390.676 1.0698 390.513 1.05236C390.35 1.03493 390.167 1.01967 389.974 1.00763C389.782 0.995595 389.585 0.987063 389.398 0.982638C386.972 0.896385 384.669 0.866337 382.677 0.894932C380.83 0.929146 378.841 0.939158 376.742 0.924809C374.733 0.921035 373.371 1.0326 370.889 0.947471C369.839 0.91944 368.913 0.928668 368.267 0.973612C366.967 1.0481 365.153 1.05225 363.147 0.985304C361.947 0.951425 360.8 0.936896 359.749 0.942272C357.201 0.966762 354.767 1.01576 352.406 1.06311C351.662 1.07407 350.865 1.07558 350.027 1.06761L338.206 0.974897C335.366 0.946457 332.532 0.912453 329.744 0.89905C327.464 0.869947 325.343 0.879062 323.454 0.926072C321.44 0.975484 319.244 0.995543 316.907 0.985872C313.277 1.01291 309.668 1.02325 305.718 1.01962C303.198 1.02185 300.619 1.01462 297.986 0.992347C296.654 0.963681 295.523 0.987028 294.811 1.05789C294.378 1.11623 293.359 1.0687 292.513 1.05516C288.001 0.924668 283.77 0.893747 280.115 0.964554C279.648 0.976093 279.136 0.980271 278.589 0.977013C275.068 0.974582 271.421 0.958767 268.041 0.958592C267.151 0.964093 266.314 0.979188 265.539 1.00369C265.622 1.04366 265.859 1.08698 266.2 1.12466C266.54 1.16235 266.96 1.19151 267.37 1.2061C270.567 1.31776 273.653 1.37675 276.499 1.38059C281.237 1.36636 286.2 1.39834 291.337 1.47618C295.322 1.55466 298.956 1.53814 301.969 1.42784C304.323 1.34555 307.386 1.37651 310.632 1.51542C312.02 1.58176 313.368 1.60829 314.491 1.59138C315.572 1.56919 316.812 1.57458 318.139 1.6072C320.936 1.66924 323.627 1.69802 326.157 1.69297C328.631 1.67013 330.939 1.60775 333.479 1.58882C336.02 1.56989 339.889 1.58074 343.022 1.54858C346.155 1.51642 349.252 1.51209 352.315 1.53557ZM127.009 -1.71868C127.296 -1.54665 128.312 -1.43958 129.405 -1.39371C133.173 -1.19003 136.898 -1.10336 139.955 -1.14824C141.606 -1.21084 143.808 -1.18674 146.126 -1.08068C148.826 -0.970431 151.35 -0.952148 153.253 -1.02905C153.719 -1.04249 154.076 -1.0709 154.291 -1.11175C154.333 -1.14513 154.41 -1.20633 154.424 -1.21745C154.224 -1.24567 153.979 -1.27182 153.708 -1.29388C153.436 -1.31593 153.146 -1.33331 152.859 -1.34467L140.378 -1.54159L138.203 -1.58493C134.23 -1.69845 130.445 -1.74368 127.009 -1.71868ZM151.559 1.00407C153.507 1.28497 153.513 1.27939 154.511 1.34361C159.326 1.61033 164.137 1.75431 168.372 1.75842C169.313 1.75761 170.112 1.73049 170.701 1.67936C171.004 1.67243 171.197 1.6504 171.237 1.6181C171.278 1.58579 171.163 1.54581 170.918 1.50688L169.369 1.30899C166.556 1.22332 163.783 1.15524 161.068 1.10518C157.906 1.04606 155.104 1.04378 151.827 1.0197L151.559 1.00407ZM311.649 43.1334C313.464 43.5201 313.471 43.5145 316.51 43.6142C318.627 43.6849 320.681 43.7264 322.611 43.7374C324.969 43.7496 327.386 43.7713 329.737 43.789C330.311 43.8014 330.798 43.7911 331.102 43.7604C331.407 43.7296 331.508 43.6804 331.385 43.6224C331.076 43.5595 330.594 43.4987 330.016 43.4497C329.438 43.4008 328.798 43.3667 328.2 43.353L326.917 43.3438C325.359 43.3245 323.742 43.2958 322.237 43.2916C321.26 43.3076 320.129 43.2952 318.932 43.2553C317.734 43.2155 316.503 43.1493 315.334 43.0619L311.649 43.1334ZM161.251 -1.21319C161.735 -1.14623 162.283 -1.08211 162.881 -1.02252C165.192 -0.857345 167.639 -0.763534 169.741 -0.759473C170.735 -0.749242 171.644 -0.785775 172.656 -0.732686C174.471 -0.661747 176.229 -0.623959 177.837 -0.621369C177.837 -0.621369 178.288 -0.636858 178.436 -0.640165L178.744 -0.884961C177.983 -0.941671 177.189 -0.987999 176.399 -1.02181C173.748 -1.08694 171.144 -1.13147 168.546 -1.18156C165.948 -1.23165 165.042 -1.25466 163.343 -1.27618C162.586 -1.26435 161.885 -1.24325 161.251 -1.21319ZM103.848 29.2198L107.317 29.7208C108.439 29.7644 109.488 29.7722 110.303 29.7433C111.118 29.7143 111.656 29.6501 111.833 29.5604C112.119 29.5184 112.147 29.4562 111.913 29.3869C111.678 29.3175 111.199 29.2464 110.575 29.1884C109.975 29.1196 109.289 29.058 108.562 29.0073C107.834 28.9566 107.079 28.9179 106.344 28.8936L103.848 29.2198ZM132.73 26.7251C130.461 26.6401 128.291 26.6054 126.385 26.6235C125.185 26.6732 123.558 26.6574 121.839 26.5791C118.712 26.4233 115.698 26.3801 113.433 26.4588C113.433 26.4588 113.349 26.5255 112.965 26.5449C112.581 26.5643 114.104 26.6114 114.439 26.631C116.895 26.6788 119.366 26.7155 121.502 26.7327C122.828 26.7319 124.23 26.7477 125.685 26.7798C127.687 26.8292 129.586 26.8452 131.307 26.8272C131.307 26.8272 131.973 26.8123 132.723 26.7306L132.73 26.7251ZM375.03 0.627816C373.947 0.533454 372.771 0.456761 371.593 0.403497C370.415 0.350233 369.263 0.32178 368.226 0.320266C367.431 0.315341 366.788 0.340256 366.399 0.39107C366.009 0.441883 365.896 0.515697 366.075 0.600837C366.879 0.647758 367.951 0.710316 368.554 0.745507C370.644 0.742063 372.427 0.696816 375.03 0.627816ZM577.889 8.57969C577.019 8.50373 576.061 8.44565 575.124 8.41209C574.187 8.37853 573.309 8.37084 572.59 8.38989C572.22 8.39816 572.471 8.48448 572.408 8.53455C572.367 8.5459 572.368 8.56002 572.41 8.57543C572.452 8.59083 572.534 8.60697 572.647 8.62213C572.76 8.63729 572.901 8.65092 573.054 8.6616C573.206 8.67227 573.366 8.6796 573.516 8.68281C574.459 8.71554 575.35 8.72528 576.108 8.71117C576.866 8.69706 577.468 8.65954 577.861 8.60195L577.889 8.57969ZM591.48 9.66559C591.346 9.62077 591.06 9.57405 590.674 9.53401C590.289 9.49395 589.83 9.46326 589.382 9.44755C588.59 9.44544 587.87 9.45787 587.25 9.48437C586.577 9.50481 587.061 9.63459 587.971 9.71158C588.356 9.74249 588.768 9.7666 589.173 9.78199C589.579 9.79738 589.967 9.80363 590.306 9.80025C590.645 9.79686 590.927 9.78393 591.128 9.76249C591.33 9.74105 591.446 9.71168 591.466 9.67672L591.48 9.66559ZM196.535 -0.736419C194.507 -0.896575 192.946 -0.856285 191.23 -0.920654C189.513 -0.985024 189.09 -0.991797 189.32 -0.888793C189.55 -0.785789 190.727 -0.806679 191.464 -0.763669C192.459 -0.706597 193.461 -0.673826 194.357 -0.669013C195.252 -0.6642 196.007 -0.687538 196.535 -0.736419ZM619.094 26.3623C618.02 26.3264 616.968 26.301 615.953 26.2865C615.82 26.3014 615.736 26.3209 615.708 26.3438C615.679 26.3668 615.705 26.3927 615.786 26.4201C615.786 26.4201 616.473 26.502 616.875 26.5255C618.356 26.6059 618.429 26.4907 619.094 26.3623ZM770.902 41.284C771.629 41.3921 771.968 41.4656 772.55 41.5175C772.818 41.5355 773.094 41.5486 773.359 41.5558C773.624 41.563 773.87 41.5641 774.08 41.559C774.336 41.5279 774.396 41.4802 774.248 41.4255C774.248 41.4255 773.507 41.3285 773.225 41.324C772.421 41.3011 771.641 41.2877 770.902 41.284ZM162.018 -1.65211C160.478 -1.74204 159.004 -1.82807 157.937 -1.72312C160.384 -1.61017 160.384 -1.61017 162.018 -1.65211ZM186.975 -0.625517C185.419 -0.817848 184.506 -0.835303 183.759 -0.813204C183.601 -0.807637 183.496 -0.795233 183.46 -0.77787C183.425 -0.760509 183.461 -0.739135 183.563 -0.716978C183.665 -0.694821 183.828 -0.673092 184.026 -0.655074C184.225 -0.637056 184.448 -0.62373 184.663 -0.617116C185.475 -0.611579 186.249 -0.61439 186.975 -0.625517ZM267.054 -0.544188C267.089 -0.572006 267.131 -0.605386 266.73 -0.628846C266.624 -0.640755 266.501 -0.650997 266.371 -0.658547C266.242 -0.666097 266.111 -0.670683 265.993 -0.671852C265.993 -0.671852 265.951 -0.638469 265.923 -0.616215L267.054 -0.544188ZM322.664 45.6396L321.769 45.665L322.171 45.6884L323.232 45.7026L322.664 45.6396ZM637.762 9.23152C637.427 9.21197 637.092 9.19242 637.043 9.23137C636.973 9.2374 636.929 9.24611 636.916 9.25675C636.902 9.2674 636.92 9.27968 636.966 9.29257C636.966 9.29257 637.435 9.31994 637.636 9.33167L637.762 9.23152ZM585.594 9.543C585.374 9.54077 585.175 9.54338 585.009 9.55067L584.967 9.58405L585.637 9.62316L585.594 9.543ZM130.96 17.4967C130.702 17.4764 130.427 17.4604 130.156 17.4498L129.821 17.4302C129.821 17.4302 130.181 17.4871 130.382 17.4988C130.583 17.5105 130.745 17.4961 130.96 17.4967Z" fill="#4EAD8F"/>
</svg>
