<svg width="15" height="13" viewBox="0 0 15 13" fill="none" xmlns="http://www.w3.org/2000/svg">
<path d="M14.1867 1.89303C14.5104 3.22953 14.5104 6.01953 14.5104 6.01953C14.5104 6.01953 14.5104 8.80953 14.1867 10.146C14.0068 10.8848 13.4805 11.466 12.814 11.6625C11.6034 12.0195 7.42708 12.0195 7.42708 12.0195C7.42708 12.0195 3.25288 12.0195 2.04021 11.6625C1.37083 11.463 0.84525 10.8825 0.667458 10.146C0.34375 8.80953 0.34375 6.01953 0.34375 6.01953C0.34375 6.01953 0.34375 3.22953 0.667458 1.89303C0.847375 1.15428 1.37367 0.573031 2.04021 0.376531C3.25288 0.0195311 7.42708 0.0195312 7.42708 0.0195312C7.42708 0.0195312 11.6034 0.0195311 12.814 0.376531C13.4833 0.576031 14.0089 1.15653 14.1867 1.89303ZM6.01042 8.64453L10.2604 6.01953L6.01042 3.39453V8.64453Z" fill="#E64545"/>
</svg>
